<svg xmlns="http://www.w3.org/2000/svg" viewBox="0 0 1200 800" width="1200" height="800" role="img" preserveAspectRatio="xMidYMid slice"><defs><linearGradient id="eg" x1="0" y1="0" x2="1" y2="0.9"><stop offset="0" stop-color="#16332E"/><stop offset="1" stop-color="#2F7F6C"/></linearGradient><radialGradient id="er" cx="0.74" cy="0.2" r="0.6"><stop offset="0" stop-color="#FFFFFF"/><stop offset="1" stop-color="#FFFFFF" stop-opacity="0"/></radialGradient><pattern id="el" width="12" height="12" patternUnits="userSpaceOnUse" patternTransform="rotate(24)"><rect x="0" y="0" width="1.5" height="12" fill="rgba(255,255,255,.12)"/></pattern><pattern id="ed" width="20" height="20" patternUnits="userSpaceOnUse"><circle cx="10.0" cy="10.0" r="2" fill="rgba(255,255,255,.20)"/></pattern><filter id="egr" x="-5%" y="-5%" width="110%" height="110%"><feTurbulence type="fractalNoise" baseFrequency="1.05" numOctaves="3" seed="7" result="n"/><feColorMatrix in="n" type="saturate" values="0"/><feComponentTransfer><feFuncA type="linear" slope="0.13"/></feComponentTransfer></filter></defs><rect width="1200" height="800" fill="#16332E"/><rect width="1200" height="800" fill="url(#eg)"/><rect width="1200" height="800" fill="url(#er)" opacity=".4"/><rect width="1200" height="800" fill="url(#el)"/><rect x="150" y="210" width="360" height="390" rx="14" fill="rgba(255,255,255,.16)" stroke="rgba(255,255,255,.5)" stroke-width="3"/><path d="M281.1,422.8 A52,52 0 1 1 378.9,422.8" fill="none" stroke="rgba(255,255,255,.7)" stroke-width="5" opacity="0.9" stroke-linecap="round"/><path d="M256.7,431.7 A78,78 0 1 1 403.3,431.7" fill="none" stroke="rgba(255,255,255,.7)" stroke-width="5" opacity="0.9" stroke-linecap="round"/><path d="M232.3,440.6 A104,104 0 1 1 427.7,440.6" fill="none" stroke="rgba(255,255,255,.7)" stroke-width="5" opacity="0.9" stroke-linecap="round"/><path d="M207.8,449.5 A130,130 0 1 1 452.2,449.5" fill="none" stroke="rgba(255,255,255,.7)" stroke-width="5" opacity="0.9" stroke-linecap="round"/><circle cx="330" cy="405" r="26" fill="rgba(255,255,255,.85)"/><rect x="690" y="210" width="360" height="390" rx="14" fill="rgba(255,255,255,.08)" stroke="rgba(255,255,255,.35)" stroke-width="3" stroke-dasharray="12 9"/><rect x="722" y="250" width="296" height="18" rx="9" fill="rgba(255,255,255,.26)"/><rect x="722" y="306" width="242" height="18" rx="9" fill="rgba(255,255,255,.26)"/><rect x="722" y="362" width="188" height="18" rx="9" fill="rgba(255,255,255,.26)"/><rect x="722" y="418" width="296" height="18" rx="9" fill="rgba(255,255,255,.26)"/><rect x="722" y="474" width="242" height="18" rx="9" fill="rgba(255,255,255,.26)"/><rect x="722" y="530" width="188" height="18" rx="9" fill="rgba(255,255,255,.26)"/><path d="M520,405 H680" stroke="rgba(255,255,255,.8)" stroke-width="4" stroke-dasharray="10 8"/><circle cx="600" cy="405" r="17" fill="none" stroke="rgba(255,255,255,.9)" stroke-width="4"/><rect x="940" y="0" width="260" height="150" fill="url(#ed)" opacity=".8"/><rect width="1200" height="800" filter="url(#egr)" opacity=".5"/></svg>